<svg xmlns="http://www.w3.org/2000/svg" xmlns:xlink="http://www.w3.org/1999/xlink" viewBox="0,0,256,256" width="50px" height="50px" fill-rule="nonzero"><g fill="#fa5252" fill-rule="nonzero" stroke="none" stroke-width="1" stroke-linecap="butt" stroke-linejoin="miter" stroke-miterlimit="10" stroke-dasharray="" stroke-dashoffset="0" font-family="none" font-weight="none" font-size="none" text-anchor="none" style="mix-blend-mode: normal"><g transform="scale(5.12,5.12)"><path d="M25,11c-13.84049,0 -25,12.14213 -25,27h2c0,-13.86013 10.33049,-25 23,-25c12.66951,0 23,11.13987 23,25h2c0,-14.85787 -11.15951,-27 -25,-27zM5,30v8h4v-3l2,2l2,-2v3h4v-8h-4l-2,3l-2,-3zM23,30l-5,8h4l0.68164,-1h4.64844l0.66992,1h4l-5,-8zM33,30v8h4v-3l4,3h4v-8h-4v3l-4,-3zM25,33.26563l1.07813,1.73438h-2.1582z"></path></g></g></svg>