<svg xmlns="http://www.w3.org/2000/svg" xmlns:xlink="http://www.w3.org/1999/xlink" viewBox="0,0,256,256" width="50px" height="50px" fill-rule="nonzero"><g fill="#fa5252" fill-rule="nonzero" stroke="none" stroke-width="1" stroke-linecap="butt" stroke-linejoin="miter" stroke-miterlimit="10" stroke-dasharray="" stroke-dashoffset="0" font-family="none" font-weight="none" font-size="none" text-anchor="none" style="mix-blend-mode: normal"><g transform="scale(5.12,5.12)"><path d="M23.5,4c-11.86242,0 -21.5,9.63758 -21.5,21.5c0,11.86242 9.63758,21.5 21.5,21.5c3.59694,0 6.98723,-0.89643 9.96484,-2.45703l0.53516,-0.28125v-0.13672c6.6229,-3.90293 11.55285,-10.59945 14.91406,-18.2207c0.11071,-0.25 0.11424,-0.53444 0.00977,-0.78711c-3.13411,-7.56814 -8.06254,-14.31676 -14.92383,-18.25781v-0.12109l-0.53516,-0.28125c-2.97761,-1.5606 -6.36791,-2.45703 -9.96484,-2.45703zM23.5,6c3.06214,0 5.92209,0.76553 8.5,2.02344v9.7832c-2.10286,-2.32554 -5.12352,-3.80664 -8.5,-3.80664c-6.33944,0 -11.5,5.16056 -11.5,11.5c0,6.33944 5.16056,11.5 11.5,11.5c3.37648,0 6.39714,-1.4811 8.5,-3.80664v9.7832c-2.57791,1.25791 -5.43786,2.02344 -8.5,2.02344c-10.78158,0 -19.5,-8.71842 -19.5,-19.5c0,-10.78158 8.71842,-19.5 19.5,-19.5zM34,9.33789c5.71099,3.65988 10.03941,9.45817 12.88281,16.15234c-3.04263,6.74855 -7.3813,12.51012 -12.88281,16.13672v-16.0918v-0.07031zM23.5,16c3.74261,0 6.9485,2.16762 8.5,5.30273v8.39453c-1.5515,3.13512 -4.75739,5.30273 -8.5,5.30273c-5.25856,0 -9.5,-4.24144 -9.5,-9.5c0,-5.25856 4.24144,-9.5 9.5,-9.5z"></path></g></g></svg>